<svg xmlns="http://www.w3.org/2000/svg" xmlns:xlink="http://www.w3.org/1999/xlink" width="208.194" height="78.623" viewBox="0 0 208.194 78.623">
  <defs>
    <clipPath id="clip-path">
      <rect id="Rectangle_641" data-name="Rectangle 641" width="208.194" height="78.618" fill="none"/>
    </clipPath>
    <clipPath id="clip-path-9">
      <path id="Path_716" data-name="Path 716" d="M238.489,252.5c-3.733,2.29-10.528,4.107-11.324,4.331-.249.075,3.559-.025,3.534,1.568-.025.946-3.061,4.828-3.061,4.828a43.228,43.228,0,0,0,8.139-7.392,20.293,20.293,0,0,0,2.738-3.335h-.025" transform="translate(-227.153 -252.5)" fill="none"/>
    </clipPath>
  </defs>
  <g id="logo" transform="translate(104.097 39.312)">
    <g id="Group_379" data-name="Group 379" transform="translate(-104.097 -39.312)">
      <g id="Group_368" data-name="Group 368" clip-path="url(#clip-path)">
        <path id="Path_673" data-name="Path 673" d="M312.659,206.955h1.369a4.237,4.237,0,0,0,1.991-.348,1.269,1.269,0,0,0,.572-1.17,1.4,1.4,0,0,0-.548-1.269,3.729,3.729,0,0,0-1.966-.373h-1.444ZM309,209.916V195.481h3.957a25.959,25.959,0,0,1,3.41.149,4.978,4.978,0,0,1,1.668.548,3.037,3.037,0,0,1,1.22,1.195,3.459,3.459,0,0,1,.423,1.717,2.887,2.887,0,0,1-.622,1.941,3.922,3.922,0,0,1-1.991,1.1,3.086,3.086,0,0,1,2.389,1.07,3.637,3.637,0,0,1,.871,2.564,4.106,4.106,0,0,1-.473,2.016,3.385,3.385,0,0,1-1.394,1.369,5.923,5.923,0,0,1-1.842.548,25.264,25.264,0,0,1-3.534.174Zm3.659-8.636h.8a4.269,4.269,0,0,0,1.991-.324,1.17,1.17,0,0,0,.523-1.12,1.274,1.274,0,0,0-.523-1.145,3.982,3.982,0,0,0-1.966-.324h-.846Z" transform="translate(-232.094 -146.824)" fill="#fff"/>
      </g>
      <path id="Path_674" data-name="Path 674" d="M372.7,209.911V195.5h8.835v3.186h-5v2.489h4.7v3.086h-4.7V206.7h5v3.211Z" transform="translate(-279.94 -146.843)" fill="#fff"/>
      <path id="Path_675" data-name="Path 675" d="M428.3,209.911V195.5h3.932v11.051h4.878v3.36Z" transform="translate(-321.702 -146.843)" fill="#fff"/>
      <path id="Path_676" data-name="Path 676" d="M481.1,209.911V195.5h8.835v3.186h-5v2.489h4.7v3.086h-4.7V206.7h5v3.211Z" transform="translate(-361.36 -146.843)" fill="#fff"/>
      <g id="Group_369" data-name="Group 369" clip-path="url(#clip-path)">
        <path id="Path_677" data-name="Path 677" d="M542.183,206.7h.647a4.985,4.985,0,0,0,3.36-.946,3.825,3.825,0,0,0,1.07-3.012,3.907,3.907,0,0,0-1.07-3.036,4.939,4.939,0,0,0-3.385-.971h-.647Zm-3.883,3.236V195.5h3.012a24.088,24.088,0,0,1,4.779.324,6.77,6.77,0,0,1,2.439,1.045,6.122,6.122,0,0,1,2.066,2.439,8.462,8.462,0,0,1,0,6.795,6.321,6.321,0,0,1-2.066,2.464,6.845,6.845,0,0,1-2.389,1.045,13.042,13.042,0,0,1-1.692.224c-.7.05-1.493.075-2.464.075H538.3Z" transform="translate(-404.324 -146.843)" fill="#fff"/>
        <path id="Path_678" data-name="Path 678" d="M607.823,177.667a1.537,1.537,0,0,1,1.444-1.468,1.419,1.419,0,0,1,1.045.423,1.468,1.468,0,0,1,.025,2.066,1.419,1.419,0,0,1-1.045.423,1.394,1.394,0,0,1-1.02-.423,1.419,1.419,0,0,1-.423-1.02m-.548,3.36h3.982v14.411H607.3Z" transform="translate(-456.151 -132.345)" fill="#fff"/>
        <path id="Path_679" data-name="Path 679" d="M643.028,209.911V203.34L638,195.5h4.5l1.941,3.708.05.1a4.953,4.953,0,0,1,.423,1.12,3.509,3.509,0,0,1,.423-1.07l.075-.149,1.916-3.708h4.5l-5,7.84v6.571Z" transform="translate(-479.21 -146.843)" fill="#fff"/>
      </g>
      <path id="Path_680" data-name="Path 680" d="M706.8,209.911V195.5h8.835v3.186h-5v2.489h4.729v3.086h-4.729V206.7h5v3.211Z" transform="translate(-530.887 -146.843)" fill="#fff"/>
      <g id="Group_370" data-name="Group 370" clip-path="url(#clip-path)">
        <path id="Path_681" data-name="Path 681" d="M760.542,204.28a7.093,7.093,0,0,0,1.717,1.468,3.435,3.435,0,0,0,1.692.5,1.942,1.942,0,0,0,1.294-.423,1.319,1.319,0,0,0,.523-1.07,1.369,1.369,0,0,0-.423-1.1,6.133,6.133,0,0,0-1.991-.821,7.987,7.987,0,0,1-2.987-1.468,3.4,3.4,0,0,1-.871-2.514,4.381,4.381,0,0,1,1.394-3.36,5.058,5.058,0,0,1,3.584-1.294,7.89,7.89,0,0,1,2.24.324,7.218,7.218,0,0,1,2.041.971l-1.22,2.812a5.127,5.127,0,0,0-1.369-.846,3.659,3.659,0,0,0-1.394-.3,1.867,1.867,0,0,0-1.145.324,1.045,1.045,0,0,0-.448.871,1.1,1.1,0,0,0,.373.846,3.935,3.935,0,0,0,1.493.622l.174.05a7.513,7.513,0,0,1,3.161,1.419,3.659,3.659,0,0,1,.772,1.269,5.138,5.138,0,0,1-1.244,5.3,5.693,5.693,0,0,1-4.007,1.394,7.118,7.118,0,0,1-2.738-.5,7.665,7.665,0,0,1-2.364-1.618Z" transform="translate(-569.945 -145.866)" fill="#fff"/>
        <path id="Path_682" data-name="Path 682" d="M817.823,177.667a1.419,1.419,0,0,1,.448-1.02,1.394,1.394,0,0,1,1-.448,1.419,1.419,0,0,1,1.045.423,1.469,1.469,0,0,1,.025,2.066,1.419,1.419,0,0,1-1.045.423,1.394,1.394,0,0,1-1.02-.423,1.419,1.419,0,0,1-.423-1.02m-.548,3.36h3.982v14.411H817.3Z" transform="translate(-613.885 -132.345)" fill="#fff"/>
        <path id="Path_683" data-name="Path 683" d="M315.479,107.934h1.767a5.236,5.236,0,0,0,2.539-.448,1.6,1.6,0,0,0,.747-1.493,1.879,1.879,0,0,0-.7-1.618,4.688,4.688,0,0,0-2.514-.473h-1.842Zm-4.679,3.783V93.2h5.077a31.908,31.908,0,0,1,4.38.2,6.4,6.4,0,0,1,2.14.7,3.907,3.907,0,0,1,1.568,1.543,4.48,4.48,0,0,1,.548,2.19,3.714,3.714,0,0,1-.8,2.514,5.154,5.154,0,0,1-2.564,1.419,3.982,3.982,0,0,1,3.086,1.394,4.668,4.668,0,0,1,1.12,3.285,5.251,5.251,0,0,1-.622,2.613,4.356,4.356,0,0,1-1.792,1.742,7.715,7.715,0,0,1-2.364.722,32.479,32.479,0,0,1-4.53.224Zm4.679-11.1h1.02a5.393,5.393,0,0,0,2.564-.423,1.527,1.527,0,0,0,.7-1.419,1.6,1.6,0,0,0-.672-1.468,5.23,5.23,0,0,0-2.539-.423h-1.1Z" transform="translate(-233.446 -70.004)" fill="#fff"/>
        <path id="Path_684" data-name="Path 684" d="M371.4,111.717,377.772,93.2h6.322l6.4,18.492h-5.028l-.946-3.31h-7.143l-.971,3.31Zm7.068-6.919H383.5L381.6,98.7l-.249-.9-.4-1.593-.149.672-.174.622L380.31,98.7Z" transform="translate(-278.963 -70.004)" fill="#fff"/>
        <path id="Path_685" data-name="Path 685" d="M452.148,103.789a7.84,7.84,0,0,1-.324-2.389,7.691,7.691,0,0,1,.324-2.34,5.177,5.177,0,0,1,.971-1.792,4.474,4.474,0,0,1,3.559-1.518,4.555,4.555,0,0,1,2.19.523,5.276,5.276,0,0,1,1.767,1.593l4.38-2.091a9.283,9.283,0,0,0-3.534-3.211,10.428,10.428,0,0,0-4.8-1.07,10.777,10.777,0,0,0-3.883.7,9.259,9.259,0,0,0-3.211,2.066,9.134,9.134,0,0,0-2.091,3.111,10.1,10.1,0,0,0-.7,3.833,10.228,10.228,0,0,0,.324,2.588h0a10.148,10.148,0,0,0,.4,1.195,9.532,9.532,0,0,0,2.041,3.161,8.761,8.761,0,0,0,3.111,2.066,9.632,9.632,0,0,0,1.892.5,12.992,12.992,0,0,0,2.116.174,9.331,9.331,0,0,0,7.093-2.638,8.91,8.91,0,0,0,2.24-4.455h-4.654a3.634,3.634,0,0,1-1.468,2.364,5.227,5.227,0,0,1-3.211.946,5.142,5.142,0,0,1-3.584-1.543,5.077,5.077,0,0,1-.971-1.767" transform="translate(-335.594 -68.721)" fill="#fff"/>
        <path id="Path_686" data-name="Path 686" d="M495.131,125.7v-1.1H485.2v3.883h5.028v.174h4.629a14.562,14.562,0,0,0,.274-2.962" transform="translate(-364.44 -93.589)" fill="#fff"/>
        <path id="Path_687" data-name="Path 687" d="M471.03,71.037a4.894,4.894,0,0,0,5.749.025,3.634,3.634,0,0,0,.821-1.244,4.5,4.5,0,0,0,.3-1.692h-1.618a1.767,1.767,0,0,1-.149.772,1.518,1.518,0,0,1-.473.548,2.747,2.747,0,0,1-1.692.423,2.871,2.871,0,0,1-1.692-.423,1.543,1.543,0,0,1-.473-.572,1.767,1.767,0,0,1-.149-.772h-1.668a4.556,4.556,0,0,0,.249,1.717,3.559,3.559,0,0,0,.821,1.244" transform="translate(-353.007 -51.151)" fill="#fff"/>
        <path id="Path_688" data-name="Path 688" d="M546.558,92.818v5.5a7.442,7.442,0,0,0-2.066-1.668,4.729,4.729,0,0,0-2.19-.548,4.53,4.53,0,0,0-3.509,1.493,5.547,5.547,0,0,0-1.344,3.858,5.2,5.2,0,0,0,1.369,3.684,4.579,4.579,0,0,0,3.509,1.468,4.7,4.7,0,0,0,2.19-.523,7.69,7.69,0,0,0,2.091-1.717v5.525a12.743,12.743,0,0,1-2.389.871l-1.17.224a9.656,9.656,0,0,1-1.244.075,10.4,10.4,0,0,1-2.837-.348,7.641,7.641,0,0,1-2.315-1.1,9.283,9.283,0,0,1-3.161-3.484,10.2,10.2,0,0,1-1.1-4.754,10.4,10.4,0,0,1,.672-3.833,9.358,9.358,0,0,1,2.091-3.161,8.661,8.661,0,0,1,2.962-2.016,9.657,9.657,0,0,1,3.659-.672,10.129,10.129,0,0,1,2.414.274,11.673,11.673,0,0,1,2.364.871" transform="translate(-399.889 -68.875)" fill="#fff"/>
      </g>
      <rect id="Rectangle_644" data-name="Rectangle 644" width="5.102" height="18.505" transform="translate(150.925 23.196)" fill="#fff"/>
      <path id="Path_689" data-name="Path 689" d="M642.1,111.717V93.2h5.052v14.187h6.272v4.331Z" transform="translate(-482.29 -70.004)" fill="#fff"/>
      <g id="Group_371" data-name="Group 371" clip-path="url(#clip-path)">
        <path id="Path_690" data-name="Path 690" d="M693.9,111.792,700.271,93.3h6.322l6.4,18.492h-5.028l-.946-3.31h-7.143l-.971,3.31Zm7.068-6.919H706l-1.892-6.1-.249-.9-.4-1.593-.149.672-.174.622-.324,1.195Z" transform="translate(-521.197 -70.079)" fill="#fff"/>
        <path id="Path_691" data-name="Path 691" d="M782.329,101.961h.946a4.166,4.166,0,0,0,2.389-.548,2.026,2.026,0,0,0,.747-1.742,2.661,2.661,0,0,0-.7-1.991,3.618,3.618,0,0,0-2.34-.6h-1.02Zm-4.729,9.756V93.2h5.276a22.682,22.682,0,0,1,4.331.274,5.526,5.526,0,0,1,2.091.971,5.077,5.077,0,0,1,1.518,1.941,6.122,6.122,0,0,1,.547,2.588,5.512,5.512,0,0,1-1.045,3.484,5.115,5.115,0,0,1-3.086,1.792l5.028,7.467h-5.7l-4.231-7.243v7.243Z" transform="translate(-584.065 -70.004)" fill="#fff"/>
        <path id="Path_692" data-name="Path 692" d="M3.325,116.2a.4.4,0,0,1-.348-.224A30.711,30.711,0,0,1-.01,106.944a.4.4,0,0,1,.348-.448.4.4,0,0,1,.448.348,30.405,30.405,0,0,0,2.887,8.786.4.4,0,0,1-.174.548l-.2.05m1.643-1.493a.4.4,0,0,1-.348-.224A36.463,36.463,0,0,1,.861,96.491a.4.4,0,1,1,.8.1,35.318,35.318,0,0,0,3.634,17.571.4.4,0,0,1-.174.548l-.174.05m2.364-.174a.4.4,0,0,1-.348-.274A37.682,37.682,0,0,1,3.9,89.7a.4.4,0,0,1,.772.224,36.808,36.808,0,0,0,2.987,24.042.4.4,0,0,1-.174.548l-.174.05m.8-3.435a.4.4,0,0,1-.373-.249c-5.55-12.395.149-27.054.2-27.2a.41.41,0,0,1,.772.274c-.05.149-5.625,14.51-.224,26.581a.4.4,0,0,1-.2.523H8.1m.9-3.957a.4.4,0,0,1-.4-.3c-3.783-15.456,3.111-26.581,3.186-26.681a.4.4,0,0,1,.672.423c-.075.1-6.77,10.951-3.086,26.058a.4.4,0,0,1-.3.473h-.1" transform="translate(0.01 -60.054)" fill="#fff"/>
        <path id="Path_693" data-name="Path 693" d="M48.937,79.953a.4.4,0,0,1-.373-.274C38.409,52.352,61.8,38.29,62.028,38.14a.4.4,0,0,1,.4.7C62.2,38.962,39.4,52.7,49.285,79.406a.4.4,0,0,1-.249.523h-.149m-2.464-1.269a.4.4,0,0,1-.373-.274c-4.231-13.44-.8-23.52,2.837-29.618a34.655,34.655,0,0,1,9.035-10.1.4.4,0,0,1,.448.672c-.2.124-19.513,13.664-11.548,38.826a.4.4,0,0,1-.274.5h-.124M43.71,76.295a.4.4,0,0,1-.4-.324c-2.564-11.872-.025-20.732,2.539-26.083A29.135,29.135,0,0,1,52.2,41a.4.4,0,0,1,.523.6c-.124.124-13.465,11.922-8.587,34.2a.4.4,0,0,1-.3.473H43.76M41.1,74.154a.4.4,0,0,1-.4-.324c-3.161-17.2,6.6-30.165,6.7-30.29a.408.408,0,1,1,.647.5c-.1.124-9.632,12.818-6.571,29.692a.4.4,0,0,1-.324.473h-.075" transform="translate(-30.096 -28.608)" fill="#fff"/>
      </g>
      <path id="Path_694" data-name="Path 694" d="M41.2,187.8v8.462l3.609,1.045,1.468-3.236Z" transform="translate(-30.946 -141.059)" fill="#fff"/>
      <path id="Path_695" data-name="Path 695" d="M41.2,187.9l3.609,9.408h0l1.468-3.236L41.2,187.8Z" transform="translate(-30.946 -141.059)" fill="#fff"/>
      <g id="Group_372" data-name="Group 372" clip-path="url(#clip-path)">
        <path id="Path_696" data-name="Path 696" d="M11.248,223.345,14.11,227.7s10.055,1.1,9.98,1.02-2.315-4.007-2.315-4.007L10.7,222.3Z" transform="translate(-8.037 -166.972)" fill="#fff"/>
      </g>
      <path id="Path_697" data-name="Path 697" d="M29.4,251.5l4.107,4.107,8.462-.572L38.683,251.9Z" transform="translate(-22.083 -188.905)" fill="#fff"/>
      <path id="Path_698" data-name="Path 698" d="M50.3,270.622l4.206,3.46,9.109-1.419L58.961,269.9Z" transform="translate(-37.781 -202.725)" fill="#fff"/>
      <path id="Path_699" data-name="Path 699" d="M71.8,285.616l5.152,2.738,8.587-3.012L81.357,283.7Z" transform="translate(-53.93 -213.091)" fill="#fff"/>
      <path id="Path_700" data-name="Path 700" d="M98.1,295.259l5.849,1.419,7.342-3.833-4.654-1.145Z" transform="translate(-73.684 -219.1)" fill="#fff"/>
      <path id="Path_701" data-name="Path 701" d="M135.166,296.9l-7.666,3.932,4.928.473,7.74-4.5Z" transform="translate(-95.767 -222.93)" fill="#fff"/>
      <path id="Path_702" data-name="Path 702" d="M162.217,293.5l-7.317,4.978,5.5-.722,5.476-5.052Z" transform="translate(-116.347 -219.851)" fill="#fff"/>
      <path id="Path_703" data-name="Path 703" d="M188.928,287.594,184,292.746l5.1-1.892,3.31-4.555Z" transform="translate(-138.205 -215.044)" fill="#fff"/>
      <g id="Group_373" data-name="Group 373" clip-path="url(#clip-path)">
        <path id="Path_704" data-name="Path 704" d="M209.849,284.324l2.962-4.306L216.1,278.6s-3.609,4.978-6.5,6.123Z" transform="translate(-157.433 -209.26)" fill="#fff"/>
      </g>
      <path id="Path_705" data-name="Path 705" d="M60.6,208.517l2.19,4.132,3.186-8.263L64.433,201.2Z" transform="translate(-45.517 -151.124)" fill="#fff"/>
      <path id="Path_706" data-name="Path 706" d="M73.5,227.566l2.763,2.962,2.514-7.641-2.24-2.987Z" transform="translate(-55.207 -165.17)" fill="#fff"/>
      <path id="Path_707" data-name="Path 707" d="M89.2,243.743l4.679,2.887.7-7.143L91.764,236.6Z" transform="translate(-66.999 -177.713)" fill="#fff"/>
      <path id="Path_708" data-name="Path 708" d="M113.947,251.7l-.647,6.844,4.082,1.817-.1-6.2Z" transform="translate(-85.101 -189.055)" fill="#fff"/>
      <path id="Path_709" data-name="Path 709" d="M132.5,262.7l.722,6.322,4.8,1.269-2.439-6.222Z" transform="translate(-99.522 -197.317)" fill="#fff"/>
      <path id="Path_710" data-name="Path 710" d="M149.2,269l2.887,6.123,4.679-.1-4.082-5.3Z" transform="translate(-112.066 -202.049)" fill="#fff"/>
      <g id="Group_374" data-name="Group 374" clip-path="url(#clip-path)">
        <path id="Path_711" data-name="Path 711" d="M170.3,273.1s3.509,4.8,3.559,4.779,3.509-.672,3.509-.672l-4.281-3.534Z" transform="translate(-127.915 -205.129)" fill="#fff"/>
      </g>
      <path id="Path_712" data-name="Path 712" d="M187.9,275.625l3.932-.025,3.31,2.091-3.484,1Z" transform="translate(-141.134 -207.007)" fill="#fff"/>
      <g id="Group_375" data-name="Group 375" clip-path="url(#clip-path)">
        <path id="Path_713" data-name="Path 713" d="M210.5,273.907l2.638,1.618c-.149.1,3.435-1.195,3.435-1.195a11.071,11.071,0,0,0-6.272-.572Z" transform="translate(-157.959 -205.488)" fill="#fff"/>
        <path id="Path_714" data-name="Path 714" d="M227.165,256.714c.8-.224,7.566-2.041,11.324-4.331a24.827,24.827,0,0,1-2.713,3.335,42.576,42.576,0,0,1-8.139,7.392s3.061-3.883,3.061-4.8c.025-1.618-3.783-1.518-3.534-1.568" transform="translate(-170.618 -189.564)" fill="#fff"/>
      </g>
      <g id="Group_376" data-name="Group 376" transform="translate(56.535 62.844)" clip-path="url(#clip-path-9)">
        <path id="Path_715" data-name="Path 715" d="M221.273,252.634s8.761-4.953,9.308-7.566c.3-1.419-15.381,4.828-15.381,4.828Z" transform="translate(-218.175 -246.76)" fill="#fff"/>
      </g>
      <path id="Path_717" data-name="Path 717" d="M137.5,22.884V58.948l6.247-3.086V19.4Z" transform="translate(-103.278 -14.572)" fill="#fff"/>
      <g id="Group_377" data-name="Group 377" clip-path="url(#clip-path)">
        <path id="Path_718" data-name="Path 718" d="M137.5,161.964l6.247-3.484a57.315,57.315,0,0,0,.075,6.77c1.07,3.186,4.181,5.052,8.288,5.052a9.834,9.834,0,0,0,10.03-9.906c0-4.206-2.439-6.421-6.073-7.964.9-.448,6.869-2.041,11.125,2.34,3.634,3.733,2.439,9.955,1.767,11.9-1.867,5.351-8.885,9.881-14.361,10.279-6.347.473-8.412-1.668-10.9-3.584l-6.172,3.036Z" transform="translate(-103.278 -114.004)" fill="#fff"/>
        <path id="Path_719" data-name="Path 719" d="M172.773,163.935l6.3-3.435v7.392s.348,4.7,6.247,4.679c0,0-7.79,7.118-11.947-1.07a12.824,12.824,0,0,1-.622-2.763c-.05-1.1.025-4.828.025-4.828" transform="translate(-129.741 -120.554)" fill="#fff"/>
        <path id="Path_720" data-name="Path 720" d="M172.9,3.484,179.147,0V30.016a14.61,14.61,0,0,1,7.715-2.19c8.114,0,15.232,5.675,15.232,13.763a13.876,13.876,0,0,1-5.476,11.548,16.044,16.044,0,0,0,1.966-8.537c0-4.779-4.654-10.4-11.573-10.4a17.073,17.073,0,0,0-7.815,2.315l-6.272,3.908Z" transform="translate(-129.867)" fill="#fff"/>
      </g>
      <path id="Path_721" data-name="Path 721" d="M114.9,237.4v.9l.324.174v-.722h3.634V237.4Z" transform="translate(-86.303 -178.314)" fill="#fff"/>
      <g id="Group_378" data-name="Group 378" clip-path="url(#clip-path)">
        <path id="Path_722" data-name="Path 722" d="M116.907,223.739a1.344,1.344,0,0,1,.149.3,1.1,1.1,0,0,1,.05.324,1.12,1.12,0,0,1-.348.846,1.369,1.369,0,0,1-1.817-.05,1.294,1.294,0,0,1-.348-.946,1.145,1.145,0,0,1,1.22-1.22,1.767,1.767,0,0,1,.7.174,5.6,5.6,0,0,1,1,.622l1.294.946-.174.3Zm-1.07-.373a.946.946,0,0,0-.672.249.932.932,0,0,0,.025,1.294,1.02,1.02,0,0,0,.722.249.921.921,0,0,0,.672-.249.846.846,0,0,0,.249-.647.871.871,0,0,0-.274-.647.971.971,0,0,0-.7-.249" transform="translate(-86.07 -167.49)" fill="#fff"/>
        <path id="Path_723" data-name="Path 723" d="M116.907,210.739a1.344,1.344,0,0,1,.149.3,1.1,1.1,0,0,1,.05.324,1.12,1.12,0,0,1-.348.846,1.369,1.369,0,0,1-1.817-.05,1.294,1.294,0,0,1-.348-.946,1.145,1.145,0,0,1,1.22-1.22,1.767,1.767,0,0,1,.7.174,5.6,5.6,0,0,1,1,.622l1.294.946-.174.3Zm-1.07-.373a.946.946,0,0,0-.672.249.932.932,0,0,0,.025,1.294,1.02,1.02,0,0,0,.722.249.921.921,0,0,0,.672-.249.846.846,0,0,0,.249-.647.871.871,0,0,0-.274-.647.971.971,0,0,0-.7-.249" transform="translate(-86.07 -157.726)" fill="#fff"/>
        <path id="Path_724" data-name="Path 724" d="M118.328,197.423h.324v2.564l-.946-.871-.3-.274q-1.17-1.07-1.668-1.07a.747.747,0,0,0-.6.249.9.9,0,0,0-.224.647.821.821,0,0,0,.249.622.971.971,0,0,0,.7.224v.373h-.05a1.2,1.2,0,0,1-.9-.348,1.483,1.483,0,0,1-.025-1.817.971.971,0,0,1,.348-.249,1.17,1.17,0,0,1,.448-.075,2.845,2.845,0,0,1,1.643.946h.025l.946.871Z" transform="translate(-86.072 -148.268)" fill="#fff"/>
      </g>
    </g>
  </g>
</svg>
